<svg width="29" height="29" viewBox="0 0 29 29" fill="none" xmlns="http://www.w3.org/2000/svg">
<path d="M14.5 0.28125C11.6878 0.28125 8.93875 1.11517 6.60048 2.67754C4.26222 4.23992 2.43977 6.46058 1.36359 9.05872C0.287403 11.6569 0.00582445 14.5158 0.554458 17.2739C1.10309 20.0321 2.4573 22.5656 4.44582 24.5542C6.43435 26.5427 8.96789 27.8969 11.7261 28.4455C14.4842 28.9942 17.3431 28.7126 19.9413 27.6364C22.5394 26.5602 24.7601 24.7378 26.3225 22.3995C27.8848 20.0613 28.7187 17.3122 28.7187 14.5C28.7115 10.7312 27.2112 7.11878 24.5462 4.45381C21.8812 1.78884 18.2688 0.288477 14.5 0.28125V0.28125ZM9.57812 10.125C9.90261 10.125 10.2198 10.2212 10.4896 10.4015C10.7594 10.5818 10.9697 10.838 11.0939 11.1378C11.218 11.4376 11.2505 11.7674 11.1872 12.0857C11.1239 12.4039 10.9677 12.6963 10.7382 12.9257C10.5088 13.1552 10.2164 13.3114 9.89819 13.3747C9.57994 13.438 9.25007 13.4055 8.95028 13.2814C8.6505 13.1572 8.39427 12.9469 8.21399 12.6771C8.03372 12.4073 7.9375 12.0901 7.9375 11.7656C7.9375 11.3305 8.11035 10.9132 8.41803 10.6055C8.7257 10.2979 9.143 10.125 9.57812 10.125ZM19.9687 19.9688H9.03125C8.74117 19.9688 8.46297 19.8535 8.25785 19.6484C8.05273 19.4433 7.9375 19.1651 7.9375 18.875C7.9375 18.5849 8.05273 18.3067 8.25785 18.1016C8.46297 17.8965 8.74117 17.7812 9.03125 17.7812H19.9687C20.2588 17.7812 20.537 17.8965 20.7421 18.1016C20.9473 18.3067 21.0625 18.5849 21.0625 18.875C21.0625 19.1651 20.9473 19.4433 20.7421 19.6484C20.537 19.8535 20.2588 19.9688 19.9687 19.9688ZM19.4219 13.4062C19.0974 13.4062 18.7802 13.31 18.5104 13.1298C18.2406 12.9495 18.0303 12.6933 17.9061 12.3935C17.782 12.0937 17.7495 11.7638 17.8128 11.4456C17.8761 11.1273 18.0323 10.835 18.2618 10.6055C18.4912 10.3761 18.7836 10.2198 19.1018 10.1565C19.4201 10.0932 19.7499 10.1257 20.0497 10.2499C20.3495 10.3741 20.6057 10.5843 20.786 10.8541C20.9663 11.1239 21.0625 11.4411 21.0625 11.7656C21.0625 12.2007 20.8896 12.618 20.582 12.9257C20.2743 13.2334 19.857 13.4062 19.4219 13.4062Z" fill="white"/>
</svg>
