<svg width="27" height="27" viewBox="0 0 27 27" fill="none" xmlns="http://www.w3.org/2000/svg">
<path d="M13.5 0C10.83 0 8.21987 0.791761 5.99981 2.27516C3.77974 3.75856 2.04942 5.86697 1.02763 8.33377C0.00584934 10.8006 -0.261496 13.515 0.259405 16.1337C0.780305 18.7525 2.06606 21.1579 3.95406 23.0459C5.84207 24.9339 8.24754 26.2197 10.8663 26.7406C13.485 27.2615 16.1994 26.9942 18.6662 25.9724C21.133 24.9506 23.2414 23.2203 24.7248 21.0002C26.2082 18.7801 27 16.17 27 13.5C26.9931 9.92168 25.5686 6.49189 23.0384 3.96164C20.5081 1.43138 17.0783 0.0068616 13.5 0ZM8.82693 9.34615C9.13501 9.34615 9.43617 9.43751 9.69233 9.60867C9.94849 9.77983 10.1481 10.0231 10.266 10.3077C10.3839 10.5924 10.4148 10.9056 10.3547 11.2077C10.2946 11.5099 10.1462 11.7875 9.92838 12.0053C9.71054 12.2231 9.43298 12.3715 9.13082 12.4316C8.82866 12.4917 8.51546 12.4609 8.23082 12.343C7.94619 12.2251 7.70291 12.0254 7.53175 11.7693C7.36059 11.5131 7.26924 11.2119 7.26924 10.9038C7.26924 10.4907 7.43335 10.0945 7.72547 9.80239C8.0176 9.51027 8.4138 9.34615 8.82693 9.34615ZM18.6923 18.6923H8.3077C8.03228 18.6923 7.76814 18.5829 7.57339 18.3881C7.37864 18.1934 7.26924 17.9293 7.26924 17.6538C7.26924 17.3784 7.37864 17.1143 7.57339 16.9195C7.76814 16.7248 8.03228 16.6154 8.3077 16.6154H18.6923C18.9677 16.6154 19.2319 16.7248 19.4266 16.9195C19.6214 17.1143 19.7308 17.3784 19.7308 17.6538C19.7308 17.9293 19.6214 18.1934 19.4266 18.3881C19.2319 18.5829 18.9677 18.6923 18.6923 18.6923ZM18.1731 12.4615C17.865 12.4615 17.5638 12.3702 17.3077 12.199C17.0515 12.0279 16.8519 11.7846 16.734 11.4999C16.6161 11.2153 16.5852 10.9021 16.6453 10.6C16.7054 10.2978 16.8538 10.0202 17.0716 9.80239C17.2895 9.58454 17.567 9.43619 17.8692 9.37608C18.1714 9.31598 18.4846 9.34683 18.7692 9.46472C19.0538 9.58262 19.2971 9.78228 19.4683 10.0384C19.6394 10.2946 19.7308 10.5958 19.7308 10.9038C19.7308 11.317 19.5667 11.7132 19.2745 12.0053C18.9824 12.2974 18.5862 12.4615 18.1731 12.4615Z" fill="#FF813A"/>
</svg>
