<svg width="27" height="27" viewBox="0 0 27 27" fill="none" xmlns="http://www.w3.org/2000/svg">
<path d="M13.5 0C10.83 0 8.21987 0.791761 5.99981 2.27516C3.77974 3.75856 2.04941 5.86697 1.02763 8.33377C0.00584924 10.8006 -0.261496 13.515 0.259405 16.1337C0.780305 18.7525 2.06606 21.1579 3.95406 23.0459C5.84207 24.9339 8.24754 26.2197 10.8663 26.7406C13.485 27.2615 16.1994 26.9942 18.6662 25.9724C21.133 24.9506 23.2414 23.2203 24.7248 21.0002C26.2082 18.7801 27 16.17 27 13.5C26.9931 9.92168 25.5686 6.49189 23.0384 3.96164C20.5081 1.43138 17.0783 0.0068616 13.5 0ZM18.1731 9.34615C18.4812 9.34615 18.7823 9.43751 19.0385 9.60867C19.2946 9.77983 19.4943 10.0231 19.6122 10.3077C19.7301 10.5924 19.7609 10.9056 19.7008 11.2077C19.6407 11.5099 19.4924 11.7875 19.2745 12.0053C19.0567 12.2231 18.7791 12.3715 18.477 12.4316C18.1748 12.4917 17.8616 12.4609 17.577 12.343C17.2923 12.2251 17.0491 12.0254 16.8779 11.7693C16.7067 11.5131 16.6154 11.2119 16.6154 10.9038C16.6154 10.4907 16.7795 10.0945 17.0716 9.80239C17.3637 9.51027 17.76 9.34615 18.1731 9.34615ZM8.82693 9.34615C9.13501 9.34615 9.43617 9.43751 9.69233 9.60867C9.9485 9.77983 10.1481 10.0231 10.266 10.3077C10.3839 10.5924 10.4148 10.9056 10.3547 11.2077C10.2946 11.5099 10.1462 11.7875 9.92838 12.0053C9.71053 12.2231 9.43298 12.3715 9.13082 12.4316C8.82866 12.4917 8.51546 12.4609 8.23082 12.343C7.94619 12.2251 7.70291 12.0254 7.53175 11.7693C7.36059 11.5131 7.26924 11.2119 7.26924 10.9038C7.26924 10.4907 7.43335 10.0945 7.72547 9.80239C8.0176 9.51027 8.4138 9.34615 8.82693 9.34615ZM19.7957 17.1346C19.1577 18.2398 18.24 19.1576 17.1349 19.7957C16.0298 20.4339 14.7761 20.7698 13.5 20.7698C12.2239 20.7698 10.9702 20.4339 9.8651 19.7957C8.75997 19.1576 7.84229 18.2398 7.20433 17.1346C7.12306 17.0167 7.06705 16.8833 7.03982 16.7427C7.0126 16.6021 7.01475 16.4574 7.04613 16.3177C7.07752 16.1779 7.13746 16.0462 7.2222 15.9308C7.30694 15.8153 7.41464 15.7187 7.53853 15.6468C7.66242 15.575 7.79983 15.5296 7.94211 15.5134C8.0844 15.4973 8.2285 15.5107 8.36534 15.5529C8.50219 15.5951 8.62883 15.6651 8.7373 15.7586C8.84578 15.8521 8.93375 15.967 8.99568 16.0962C9.45302 16.8858 10.1099 17.5413 10.9005 17.997C11.691 18.4527 12.5875 18.6926 13.5 18.6926C14.4125 18.6926 15.309 18.4527 16.0995 17.997C16.8901 17.5413 17.547 16.8858 18.0043 16.0962C18.1527 15.8809 18.3767 15.7296 18.6318 15.6723C18.8868 15.615 19.154 15.656 19.3802 15.7871C19.6063 15.9182 19.7747 16.1297 19.8517 16.3795C19.9287 16.6293 19.9087 16.8989 19.7957 17.1346Z" fill="#51B62E"/>
</svg>
