<svg width="27" height="27" viewBox="0 0 27 27" fill="none" xmlns="http://www.w3.org/2000/svg">
<path d="M13.5 0C10.83 0 8.21987 0.791761 5.99981 2.27516C3.77974 3.75856 2.04942 5.86697 1.02763 8.33377C0.00584934 10.8006 -0.261496 13.515 0.259405 16.1337C0.780305 18.7525 2.06606 21.1579 3.95406 23.0459C5.84207 24.9339 8.24754 26.2197 10.8663 26.7406C13.485 27.2615 16.1994 26.9942 18.6662 25.9724C21.133 24.9506 23.2414 23.2203 24.7248 21.0002C26.2082 18.7801 27 16.17 27 13.5C26.9931 9.92168 25.5686 6.49189 23.0384 3.96164C20.5081 1.43138 17.0783 0.0068616 13.5 0V0ZM8.82693 12.4615C8.51884 12.4615 8.21768 12.3702 7.96152 12.199C7.70536 12.0279 7.50571 11.7846 7.38781 11.4999C7.26991 11.2153 7.23906 10.9021 7.29917 10.6C7.35927 10.2978 7.50763 10.0202 7.72547 9.80239C7.94332 9.58454 8.22087 9.43619 8.52304 9.37608C8.8252 9.31598 9.1384 9.34683 9.42303 9.46472C9.70766 9.58262 9.95094 9.78228 10.1221 10.0384C10.2933 10.2946 10.3846 10.5958 10.3846 10.9038C10.3846 11.317 10.2205 11.7132 9.92838 12.0053C9.63626 12.2974 9.24005 12.4615 8.82693 12.4615ZM18.1731 12.4615C17.865 12.4615 17.5638 12.3702 17.3077 12.199C17.0515 12.0279 16.8519 11.7846 16.734 11.4999C16.6161 11.2153 16.5852 10.9021 16.6453 10.6C16.7054 10.2978 16.8538 10.0202 17.0716 9.80239C17.2895 9.58454 17.567 9.43619 17.8692 9.37608C18.1714 9.31598 18.4846 9.34683 18.7692 9.46472C19.0538 9.58262 19.2971 9.78228 19.4683 10.0384C19.6394 10.2946 19.7308 10.5958 19.7308 10.9038C19.7308 11.317 19.5667 11.7132 19.2745 12.0053C18.9824 12.2974 18.5862 12.4615 18.1731 12.4615Z" fill="white"/>
</svg>
