<svg width="27" height="27" viewBox="0 0 27 27" fill="none" xmlns="http://www.w3.org/2000/svg">
<path d="M13.5 0C10.83 0 8.21987 0.791761 5.99981 2.27516C3.77974 3.75856 2.04941 5.86697 1.02763 8.33377C0.00584932 10.8006 -0.261496 13.515 0.259405 16.1337C0.780305 18.7525 2.06606 21.1579 3.95406 23.0459C5.84207 24.9339 8.24754 26.2197 10.8663 26.7406C13.485 27.2615 16.1994 26.9942 18.6662 25.9724C21.133 24.9506 23.2414 23.2203 24.7248 21.0002C26.2082 18.7801 27 16.17 27 13.5C26.9931 9.92168 25.5686 6.49189 23.0384 3.96164C20.5081 1.43138 17.0783 0.0068616 13.5 0ZM11.1245 12.7601C11.3195 12.957 11.4289 13.2229 11.4289 13.5C11.4289 13.7771 11.3195 14.043 11.1245 14.2399C10.926 14.4318 10.6607 14.5391 10.3846 14.5391C10.1085 14.5391 9.84321 14.4318 9.64472 14.2399L8.3077 12.8899L6.97068 14.2399C6.77219 14.4318 6.50688 14.5391 6.23077 14.5391C5.95467 14.5391 5.68936 14.4318 5.49087 14.2399C5.29587 14.043 5.18647 13.7771 5.18647 13.5C5.18647 13.2229 5.29587 12.957 5.49087 12.7601L6.84087 11.4231L5.49087 10.0861C5.32527 9.88429 5.24065 9.62814 5.25345 9.36743C5.26626 9.10672 5.37558 8.8601 5.56015 8.67552C5.74472 8.49095 5.99134 8.38163 6.25205 8.36883C6.51276 8.35603 6.76891 8.44065 6.97068 8.60625L8.3077 9.95625L9.64472 8.60625C9.84648 8.44065 10.1026 8.35603 10.3633 8.36883C10.6241 8.38163 10.8707 8.49095 11.0552 8.67552C11.2398 8.8601 11.3491 9.10672 11.3619 9.36743C11.3747 9.62814 11.2901 9.88429 11.1245 10.0861L9.77452 11.4231L11.1245 12.7601ZM13.5 21.8077C13.1919 21.8077 12.8908 21.7163 12.6346 21.5452C12.3784 21.374 12.1788 21.1307 12.0609 20.8461C11.943 20.5615 11.9121 20.2483 11.9722 19.9461C12.0323 19.6439 12.1807 19.3664 12.3985 19.1485C12.6164 18.9307 12.8939 18.7823 13.1961 18.7222C13.4983 18.6621 13.8115 18.693 14.0961 18.8109C14.3807 18.9288 14.624 19.1284 14.7952 19.3846C14.9663 19.6408 15.0577 19.9419 15.0577 20.25C15.0577 20.6631 14.8936 21.0593 14.6015 21.3514C14.3093 21.6436 13.9131 21.8077 13.5 21.8077ZM21.5091 12.7601C21.7041 12.957 21.8135 13.2229 21.8135 13.5C21.8135 13.7771 21.7041 14.043 21.5091 14.2399C21.3106 14.4318 21.0453 14.5391 20.7692 14.5391C20.4931 14.5391 20.2278 14.4318 20.0293 14.2399L18.6923 12.8899L17.3553 14.2399C17.1568 14.4318 16.8915 14.5391 16.6154 14.5391C16.3393 14.5391 16.074 14.4318 15.8755 14.2399C15.6805 14.043 15.5711 13.7771 15.5711 13.5C15.5711 13.2229 15.6805 12.957 15.8755 12.7601L17.2255 11.4231L15.8755 10.0861C15.7099 9.88429 15.6253 9.62814 15.6381 9.36743C15.6509 9.10672 15.7602 8.8601 15.9448 8.67552C16.1293 8.49095 16.376 8.38163 16.6367 8.36883C16.8974 8.35603 17.1535 8.44065 17.3553 8.60625L18.6923 9.95625L20.0293 8.60625C20.2311 8.44065 20.4872 8.35603 20.748 8.36883C21.0087 8.38163 21.2553 8.49095 21.4399 8.67552C21.6244 8.8601 21.7338 9.10672 21.7466 9.36743C21.7594 9.62814 21.6747 9.88429 21.5091 10.0861L20.1591 11.4231L21.5091 12.7601Z" fill="#FF3A3A"/>
</svg>
