<svg width="29" height="29" viewBox="0 0 29 29" fill="none" xmlns="http://www.w3.org/2000/svg">
<path d="M14.5 0.28125C11.6878 0.28125 8.93875 1.11517 6.60049 2.67754C4.26222 4.23992 2.43977 6.46058 1.36359 9.05872C0.287404 11.6569 0.00582517 14.5158 0.554459 17.2739C1.10309 20.0321 2.4573 22.5656 4.44582 24.5542C6.43435 26.5427 8.96789 27.8969 11.7261 28.4455C14.4842 28.9942 17.3431 28.7126 19.9413 27.6364C22.5394 26.5602 24.7601 24.7378 26.3225 22.3995C27.8848 20.0613 28.7187 17.3122 28.7187 14.5C28.7115 10.7312 27.2112 7.11878 24.5462 4.45381C21.8812 1.78884 18.2688 0.288477 14.5 0.28125V0.28125ZM19.4219 10.125C19.7464 10.125 20.0636 10.2212 20.3334 10.4015C20.6032 10.5818 20.8134 10.838 20.9376 11.1378C21.0618 11.4376 21.0943 11.7674 21.031 12.0857C20.9677 12.4039 20.8114 12.6963 20.582 12.9257C20.3525 13.1552 20.0602 13.3114 19.7419 13.3747C19.4237 13.438 19.0938 13.4055 18.794 13.2814C18.4943 13.1572 18.238 12.9469 18.0577 12.6771C17.8775 12.4073 17.7812 12.0901 17.7812 11.7656C17.7812 11.3305 17.9541 10.9132 18.2618 10.6055C18.5695 10.2979 18.9868 10.125 19.4219 10.125ZM9.57812 10.125C9.90261 10.125 10.2198 10.2212 10.4896 10.4015C10.7594 10.5818 10.9697 10.838 11.0939 11.1378C11.218 11.4376 11.2505 11.7674 11.1872 12.0857C11.1239 12.4039 10.9677 12.6963 10.7382 12.9257C10.5088 13.1552 10.2164 13.3114 9.89819 13.3747C9.57994 13.438 9.25007 13.4055 8.95028 13.2814C8.6505 13.1572 8.39427 12.9469 8.21399 12.6771C8.03372 12.4073 7.9375 12.0901 7.9375 11.7656C7.9375 11.3305 8.11035 10.9132 8.41803 10.6055C8.7257 10.2979 9.143 10.125 9.57812 10.125ZM21.1309 18.3281C20.4589 19.4922 19.4924 20.4589 18.3284 21.1309C17.1645 21.803 15.8441 22.1569 14.5 22.1569C13.1559 22.1569 11.8355 21.803 10.6716 21.1309C9.5076 20.4589 8.54107 19.4922 7.86914 18.3281C7.78354 18.2039 7.72455 18.0634 7.69587 17.9153C7.6672 17.7672 7.66946 17.6148 7.70252 17.4677C7.73558 17.3205 7.79871 17.1818 7.88796 17.0602C7.97721 16.9386 8.09064 16.8368 8.22113 16.7611C8.35162 16.6855 8.49634 16.6377 8.6462 16.6206C8.79607 16.6036 8.94783 16.6178 9.09197 16.6622C9.2361 16.7066 9.36948 16.7804 9.48373 16.8789C9.59798 16.9773 9.69063 17.0984 9.75586 17.2344C10.2375 18.066 10.9294 18.7565 11.7621 19.2364C12.5947 19.7164 13.5389 19.9691 14.5 19.9691C15.4611 19.9691 16.4053 19.7164 17.2379 19.2364C18.0706 18.7565 18.7625 18.066 19.2441 17.2344C19.4004 17.0077 19.6364 16.8483 19.905 16.788C20.1736 16.7276 20.4551 16.7708 20.6932 16.9089C20.9314 17.0469 21.1087 17.2698 21.1899 17.5328C21.271 17.7959 21.2499 18.0799 21.1309 18.3281Z" fill="white"/>
</svg>
