<svg width="27" height="24" viewBox="0 0 27 24" fill="none" xmlns="http://www.w3.org/2000/svg">
<g filter="url(#filter0_d_29_7)">
<path d="M13.3945 13.4531C14.1777 13.4531 14.9289 13.142 15.4827 12.5882C16.0365 12.0343 16.3477 11.2832 16.3477 10.5C16.3477 10.4135 16.3437 10.3278 16.3363 10.2432L13.1377 13.4418C13.2224 13.4492 13.3078 13.4531 13.3945 13.4531ZM23.1694 1.36534L22.043 0.239986C22.0034 0.200458 21.9498 0.178253 21.8939 0.178253C21.8379 0.178253 21.7843 0.200458 21.7448 0.239986L18.8623 3.12324C17.2722 2.3106 15.4847 1.90428 13.5 1.90428C8.43223 1.90428 4.65117 4.54364 2.15684 9.82235C2.05658 10.0347 2.00458 10.2665 2.00458 10.5013C2.00458 10.7361 2.05658 10.968 2.15684 11.1803C3.15352 13.2796 4.35366 14.9623 5.75727 16.2283L2.96789 19.0166C2.92836 19.0561 2.90616 19.1098 2.90616 19.1657C2.90616 19.2216 2.92836 19.2752 2.96789 19.3148L4.09351 20.4404C4.13306 20.4799 4.18669 20.5021 4.24261 20.5021C4.29853 20.5021 4.35216 20.4799 4.39172 20.4404L23.1694 1.66381C23.189 1.64422 23.2045 1.62096 23.2152 1.59535C23.2258 1.56975 23.2312 1.5423 23.2312 1.51458C23.2312 1.48686 23.2258 1.45941 23.2152 1.4338C23.2045 1.40819 23.189 1.38493 23.1694 1.36534ZM8.75391 10.5C8.75383 9.69844 8.96137 8.91054 9.35631 8.21304C9.75125 7.51555 10.3201 6.93223 11.0075 6.51994C11.6949 6.10764 12.4773 5.88041 13.2786 5.86039C14.0799 5.84037 14.8727 6.02823 15.5798 6.40569L14.2979 7.68766C13.7809 7.52212 13.2282 7.50218 12.7007 7.63004C12.1731 7.7579 11.6909 8.02861 11.307 8.41247C10.9232 8.79633 10.6524 9.27852 10.5246 9.80611C10.3967 10.3337 10.4167 10.8863 10.5822 11.4033L9.30023 12.6853C8.94048 12.0131 8.75278 11.2624 8.75391 10.5Z" fill="white"/>
<path d="M24.8432 9.81971C23.915 7.86503 22.8103 6.27113 21.5291 5.03802L17.7285 8.83885C18.0489 9.67631 18.1199 10.5886 17.933 11.4656C17.746 12.3425 17.3092 13.1466 16.6751 13.7806C16.0411 14.4146 15.2371 14.8515 14.3601 15.0384C13.4832 15.2253 12.5709 15.1543 11.7334 14.834L8.50975 18.0576C10.0053 18.7497 11.6687 19.0957 13.5 19.0957C18.5678 19.0957 22.3488 16.4563 24.8432 11.1776C24.9434 10.9653 24.9954 10.7335 24.9954 10.4987C24.9954 10.2639 24.9434 10.032 24.8432 9.81971Z" fill="white"/>
</g>
<defs>
<filter id="filter0_d_29_7" x="-1.99542" y="0.178253" width="30.9909" height="28.3239" filterUnits="userSpaceOnUse" color-interpolation-filters="sRGB">
<feFlood flood-opacity="0" result="BackgroundImageFix"/>
<feColorMatrix in="SourceAlpha" type="matrix" values="0 0 0 0 0 0 0 0 0 0 0 0 0 0 0 0 0 0 127 0" result="hardAlpha"/>
<feOffset dy="4"/>
<feGaussianBlur stdDeviation="2"/>
<feComposite in2="hardAlpha" operator="out"/>
<feColorMatrix type="matrix" values="0 0 0 0 0 0 0 0 0 0 0 0 0 0 0 0 0 0 0.25 0"/>
<feBlend mode="normal" in2="BackgroundImageFix" result="effect1_dropShadow_29_7"/>
<feBlend mode="normal" in="SourceGraphic" in2="effect1_dropShadow_29_7" result="shape"/>
</filter>
</defs>
</svg>
