<svg width="23" height="19" viewBox="0 0 23 19" fill="none" xmlns="http://www.w3.org/2000/svg">
<path d="M8.44141 9.5C8.44141 10.2832 8.75254 11.0344 9.30636 11.5882C9.86017 12.142 10.6113 12.4531 11.3945 12.4531C12.1777 12.4531 12.9289 12.142 13.4827 11.5882C14.0365 11.0344 14.3477 10.2832 14.3477 9.5C14.3477 8.71678 14.0365 7.96564 13.4827 7.41183C12.9289 6.85801 12.1777 6.54688 11.3945 6.54688C10.6113 6.54688 9.86017 6.85801 9.30636 7.41183C8.75254 7.96564 8.44141 8.71678 8.44141 9.5V9.5ZM22.8432 8.81973C20.3436 3.5542 16.5651 0.904297 11.5 0.904297C6.43223 0.904297 2.65645 3.5542 0.156836 8.82236C0.0565754 9.03466 0.00457764 9.26653 0.00457764 9.50132C0.00457764 9.7361 0.0565754 9.96797 0.156836 10.1803C2.65645 15.4458 6.43486 18.0957 11.5 18.0957C16.5678 18.0957 20.3436 15.4458 22.8432 10.1776C23.0462 9.75049 23.0462 9.25479 22.8432 8.81973V8.81973ZM11.3945 14.1406C8.83164 14.1406 6.75391 12.0629 6.75391 9.5C6.75391 6.93711 8.83164 4.85938 11.3945 4.85938C13.9574 4.85938 16.0352 6.93711 16.0352 9.5C16.0352 12.0629 13.9574 14.1406 11.3945 14.1406Z" fill="white"/>
</svg>
